<svg width="200" height="70" viewBox="0 0 200 70" fill="none" xmlns="http://www.w3.org/2000/svg">
<path d="M60.2053 0.684011C59.5212 -0.000139058 58.267 -0.000139058 57.4688 0.684011L56.3285 1.82426C55.6444 2.50841 55.6444 3.76268 56.3285 4.56085L73.8883 22.1207L56.4425 39.5665C55.7584 40.2507 55.7584 41.505 56.4425 42.3031L57.5828 43.4434C58.2669 44.1275 59.5212 44.1275 60.3194 43.4434L81.642 22.1207L60.2053 0.684011Z" fill="#FAA74A"/>
<path d="M99.088 1.82431L97.9478 0.684058C97.2636 -9.14931e-05 96.0093 -9.14931e-05 95.2112 0.684058L80.3879 15.5073L84.1507 19.2701L98.974 4.44687C99.7721 3.76272 99.7722 2.62248 99.088 1.82431Z" fill="#1E3860"/>
<path d="M177.309 19.4983C177.309 19.4983 175.257 19.0422 174.23 18.5861C170.695 17.4458 167.503 15.5074 167.503 12.0866C167.503 8.09577 170.924 5.47321 175.941 5.47321C179.361 5.47321 181.984 6.38541 183.808 8.32384L184.379 8.89396C185.063 9.57811 186.317 9.57811 187.115 8.89396L188.255 7.75371C188.939 7.06956 188.939 5.81526 188.255 5.01708C187.913 4.67501 187.685 4.44696 187.685 4.44696C184.721 1.59633 180.616 0.114024 176.055 0.114024C171.836 0.114024 168.415 1.25427 165.678 3.53477C163.056 5.81527 161.688 8.6659 161.688 12.0866C161.688 20.5245 169.555 22.5769 176.511 24.4013H176.739C182.782 25.7696 185.861 28.2782 185.861 31.5849C185.861 35.8038 182.326 38.3124 176.511 38.3124C172.862 38.3124 169.555 37.0581 167.389 34.8916L166.705 34.2075C166.021 33.5233 164.766 33.5233 163.968 34.2075L162.6 35.5758C161.916 36.2599 161.916 37.5142 162.6 38.3124L163.284 38.9965C166.477 42.0752 171.038 43.7856 176.397 43.7856C180.844 43.7856 184.493 42.6453 187.457 40.3648C190.308 38.1984 191.676 35.2337 191.676 31.5849C191.676 23.9452 184.835 21.2086 177.309 19.4983Z" fill="#1E3860"/>
<path d="M99.0878 42.1893L97.9475 43.3296C97.2634 44.0137 96.0091 44.0137 95.2109 43.3296L80.3877 28.5063L84.1505 24.7435L98.9737 39.5668C99.7719 40.2509 99.7719 41.3912 99.0878 42.1893Z" fill="#1E3860"/>
<path d="M128.164 5.47328C137.286 5.47328 144.584 12.8849 144.584 21.8929C144.584 31.0149 137.172 38.4265 128.164 38.4265C119.042 38.4265 111.63 31.0149 111.63 21.8929C111.63 12.8849 119.042 5.47328 128.164 5.47328ZM128.164 0.114094C116.077 0.114094 106.271 9.92025 106.271 22.0069C106.271 34.0936 116.077 43.8997 128.164 43.8997C140.251 43.8997 150.057 34.0936 150.057 22.0069C150.057 9.92025 140.251 0.114094 128.164 0.114094Z" fill="#1E3860"/>
<path d="M41.8472 0.114032H40.2508C39.2246 0.114032 38.4264 0.912214 38.4264 1.93844V7.52566C34.4356 2.96466 28.5063 0 21.8928 0C9.80616 0 0 9.80616 0 21.8928C0 33.9795 9.80616 43.7856 21.8928 43.7856C28.5063 43.7856 34.3215 40.821 38.4264 36.26V41.8472C38.4264 42.8734 39.2246 43.6716 40.2508 43.6716H41.8472C42.8734 43.6716 43.7856 42.8734 43.7856 41.8472V2.05247C43.6716 1.02625 42.8734 0.114032 41.8472 0.114032ZM38.3124 22.1208C38.3124 31.1288 30.9007 38.5405 21.7787 38.5405C12.6567 38.5405 5.24512 31.1288 5.24512 22.0068C5.24512 12.8848 12.6567 5.47322 21.7787 5.47322C30.9007 5.47322 38.1983 12.7708 38.3124 21.8928V22.1208Z" fill="#1E3860"/>
<path d="M195.211 2.50856C195.211 1.14026 196.237 0.114024 197.605 0.114024C198.974 0.114024 200 1.14026 200 2.50856C200 3.87685 198.974 4.90309 197.605 4.90309C196.123 4.90309 195.211 3.87685 195.211 2.50856ZM199.544 2.50856C199.544 1.25428 198.746 0.456085 197.491 0.456085C196.237 0.456085 195.439 1.36831 195.439 2.50856C195.439 3.76283 196.237 4.56099 197.491 4.56099C198.746 4.67502 199.544 3.76283 199.544 2.50856ZM196.807 3.76284V1.25427C197.035 1.25427 197.149 1.14024 197.377 1.14024C197.947 1.14024 198.404 1.36831 198.404 1.93843C198.404 2.39453 198.176 2.62259 197.833 2.62259L198.632 3.6488H198.29L197.605 2.73658H197.263V3.76284H196.807ZM197.149 2.50856H197.491C197.833 2.50856 198.062 2.39453 198.062 1.93843C198.062 1.59636 197.833 1.48234 197.377 1.48234C197.263 1.48234 197.149 1.48234 197.149 1.48234V2.50856Z" fill="#1E3860"/>
<path d="M59.065 66.0203C59.9772 66.7045 60.8894 67.2746 62.1437 67.2746C63.2839 67.2746 64.3102 66.8185 64.3102 65.5642C64.3102 64.424 63.512 63.9679 62.1437 63.6258C59.8632 62.9417 58.8369 61.9154 58.8369 59.863C58.8369 57.6965 60.5473 56.4422 62.5998 56.4422C63.8541 56.4422 64.7662 56.7843 65.5644 57.3545V59.4069C64.6522 58.6087 63.74 58.1526 62.5998 58.1526C61.4595 58.1526 60.7754 58.8368 60.7754 59.749C60.7754 60.7752 61.4595 61.1173 62.9419 61.6874C65.2224 62.3716 66.2485 63.3978 66.2485 65.4502C66.2485 67.8447 64.4242 68.985 62.1437 68.985C60.8894 68.985 59.7491 68.6429 59.065 68.0728V66.0203Z" fill="#1E3860"/>
<path d="M80.6157 67.0468V68.8712H73.4322V56.6705H80.5017V58.4949H75.3705V61.8017H80.1596V63.6261H75.3705V67.0468H80.6157Z" fill="#1E3860"/>
<path d="M96.465 59.6352C95.6668 58.837 94.5266 58.3809 93.2723 58.3809C90.9918 58.3809 89.2815 60.0913 89.2815 62.8279C89.2815 65.5645 90.9918 67.2748 93.2723 67.2748C94.6406 67.2748 95.6669 66.8187 96.5791 66.0206V68.301C95.5529 68.9852 94.4126 69.2133 93.2723 69.2133C89.7376 69.2133 87.229 66.5907 87.229 62.9419C87.229 59.1791 89.7376 56.6705 93.2723 56.6705C94.4126 56.6705 95.5528 56.8986 96.465 57.5827V59.6352Z" fill="#1E3860"/>
<path d="M103.535 56.6705H105.587V64.3102C105.587 66.5907 106.727 67.2748 108.438 67.2748C109.35 67.2748 110.034 67.1608 110.718 67.0468V56.6705H112.771V68.5291C111.744 68.8712 109.92 69.0992 108.438 69.0992C105.815 69.0992 103.535 68.073 103.535 64.7663V56.6705Z" fill="#1E3860"/>
<path d="M122.577 68.871H120.525V56.6703C121.209 56.5563 122.463 56.4422 123.375 56.4422C126.454 56.4422 128.05 57.8106 128.05 60.4331C128.05 62.2575 127.138 63.5118 125.77 64.0819L129.304 68.871H126.91L123.831 64.538H122.577V68.871ZM122.577 62.8277H123.603C125.2 62.8277 126.226 62.1435 126.226 60.5472C126.226 59.1789 125.314 58.3807 123.489 58.3807C123.261 58.3807 122.805 58.3807 122.577 58.3807V62.8277Z" fill="#1E3860"/>
<path d="M137.856 56.6705H135.804V68.8712H137.856V56.6705Z" fill="#1E3860"/>
<path d="M150.171 68.8712H148.233V58.4949H144.47V56.6705H153.82V58.4949H150.171V68.8712Z" fill="#1E3860"/>
<path d="M162.6 56.6705H160.547V68.8712H162.6V56.6705Z" fill="#1E3860"/>
<path d="M177.651 67.0468V68.8712H170.353V56.6705H177.537V58.4949H172.406V61.8017H177.195V63.6261H172.406V67.0468H177.651Z" fill="#1E3860"/>
<path d="M184.492 66.0203C185.405 66.7045 186.317 67.2746 187.571 67.2746C188.711 67.2746 189.738 66.8185 189.738 65.5642C189.738 64.424 188.939 63.9679 187.571 63.6258C185.291 62.9417 184.264 61.9154 184.264 59.863C184.264 57.6965 185.975 56.4422 188.027 56.4422C189.282 56.4422 190.194 56.7843 190.992 57.3545V59.4069C190.08 58.6087 189.168 58.1526 188.027 58.1526C186.887 58.1526 186.203 58.8368 186.203 59.749C186.203 60.7752 186.887 61.1173 188.369 61.6874C190.65 62.3716 191.676 63.3978 191.676 65.4502C191.676 67.8447 189.852 68.985 187.571 68.985C186.317 68.985 185.177 68.6429 184.492 68.0728V66.0203Z" fill="#1E3860"/>
</svg>
